<?xml version="1.0" encoding="utf-8"?>
<!-- Generator: Adobe Illustrator 23.0.1, SVG Export Plug-In . SVG Version: 6.00 Build 0)  -->
<svg version="1.1" id="Layer_1" xmlns="http://www.w3.org/2000/svg" xmlns:xlink="http://www.w3.org/1999/xlink" x="0px" y="0px"
	 viewBox="0 0 512 512" style="enable-background:new 0 0 512 512;" xml:space="preserve">
<style type="text/css">
	.st0{fill:green;}
	.st1{fill:#ffffff;}
</style>
<path class="st0" d="M454.8,198.8c0,159.2-179.8,306.7-179.8,306.7c-10.5,8.6-27.7,8.6-38.2,0c0,0-179.8-147.5-179.8-306.7
	C57.2,89,146.2,0,256,0S454.8,89,454.8,198.8z"/>
<path class="st1" d="M256,349c-82.8,0-150.2-67.4-150.2-150.2S173.2,48.7,256,48.7S406.2,116,406.2,198.8S338.8,349,256,349z"/>
<path class="st0" d="M366.5,137.5c1.8,0,2.5,0.3,2.5,2.5c0,36.2,0,72.3,0,108.5c0,3.3,0,3.3-3.3,3.3l-109.6-0.2H146.2
	c-3.1,0-3.1,0-3.1-3.2c0-36,0-72,0-108.1c0-2.9,0-2.9,3-2.9 M280.6,197.7c0-11.2,0-22.4,0-33.5c0.4-3.5-2.2-6.7-5.7-7.1
	c-3.5-0.4-6.7,2.2-7.1,5.7c0,0.5,0,0.9,0,1.4c0,10.2,0,20.4,0,30.6c0,12.1,0,24.1,0,36.2c-0.4,3.5,2.2,6.7,5.7,7
	c3.5,0.4,6.7-2.2,7-5.7c0-0.4,0-0.7,0-1.1C280.6,220,280.6,208.8,280.6,197.7z M171.1,197.7L171.1,197.7c0,11.1,0,22.2,0,33.3
	c-0.4,3.5,2.1,6.8,5.6,7.2c0.2,0,0.4,0,0.6,0c3.9,0,6.5-2.7,6.5-7.2c0-22.2,0-44.5,0-66.7c0-4.5-2.5-7.2-6.5-7.2
	c-4,0-6.3,2.8-6.3,7.3C171.1,175.5,171.1,186.5,171.1,197.7L171.1,197.7z M299.9,197.7c0,11.2,0,22.4,0,33.6
	c-0.3,3.5,2.3,6.6,5.8,6.9c3.5,0.3,6.6-2.3,6.9-5.8c0-0.4,0-0.8,0-1.1c0-22.4,0-44.8,0-67.2c0-1.2-0.2-2.4-0.7-3.5
	c-1.2-2.7-4.2-4.1-7.1-3.4c-3,0.7-5.1,3.5-5,6.6C299.9,175.1,299.9,186.4,299.9,197.7L299.9,197.7z M248.4,197.9L248.4,197.9
	c0-11.3,0-22.7,0-34c0.2-3.5-2.5-6.6-6-6.8c-0.6,0-1.2,0-1.8,0.1c-3.1,0.7-5,3.2-5,7.3c0,22.1,0,44.3,0,66.4c0,1.1,0.2,2.2,0.5,3.3
	c1.1,2.8,4.1,4.5,7.1,3.8c3-0.6,5.2-3.3,5.1-6.4C248.5,220.4,248.4,209.1,248.4,197.9L248.4,197.9z M215.9,197.9c0-11.3,0-22.7,0-34
	c0.3-3.4-2.3-6.5-5.7-6.7c-0.2,0-0.5,0-0.7,0c-3.5,0-6.3,2.9-6.3,6.3c0,0.1,0,0.3,0,0.4c0,5,0,10,0,14.8c0,17.6,0,35.2,0,52.8
	c-0.2,3.5,2.6,6.5,6.1,6.6c3.5,0.2,6.5-2.6,6.6-6.1c0-0.3,0-0.5,0-0.8C215.9,220.1,215.9,209,215.9,197.9z M345.1,197.9
	c0-11.1,0-22.2,0-33.3c0-0.9,0-1.8-0.2-2.7c-0.8-3.1-3.8-5.2-7-4.8c-3.2,0.3-5.6,3-5.5,6.3c0,10,0,19.7,0,29.5c0,12.6,0,25.2,0,37.8
	c0,1.2,0.1,2.4,0.5,3.5c1.1,2.8,4.1,4.5,7,3.9c3.1-0.6,5.2-3.3,5.1-6.4C345.2,220.4,345.1,209.1,345.1,197.9L345.1,197.9z"/>
</svg>
